<svg width="96" height="40" viewBox="0 0 96 40" fill="none" xmlns="http://www.w3.org/2000/svg">
<path d="M51.731 38.8449H50.7743L50.3281 35.8183C50.29 35.5256 50.2665 35.3383 50.2636 35.2505C50.1961 35.3705 50.0875 35.5432 49.9319 35.7774L48.6552 37.718H48.4557L47.1848 35.7774C47.0645 35.6076 46.9501 35.4261 46.8385 35.2329C46.8385 35.3383 46.8238 35.4525 46.8062 35.5725C46.7886 35.6925 46.7798 35.7774 46.774 35.8271L46.3455 38.8449H45.3887L46.2134 33.2103H46.5069L48.1974 35.7949C48.3295 36.0027 48.4498 36.1959 48.5613 36.3803C48.6699 36.1988 48.7932 36.0057 48.9253 35.7949L50.6216 33.2103H50.9151L51.731 38.8449Z" fill="white"/>
<path d="M58.8394 37.9902V38.8449H55.2354V33.2513H58.7573V34.109H56.2009V35.5725H58.4344V36.4038H56.2009V37.9756L58.8394 37.9902Z" fill="white"/>
<path d="M66.244 36.4652C66.407 36.7126 66.4909 37.0035 66.4847 37.2994C66.4925 37.5827 66.4165 37.862 66.2662 38.1025C66.1159 38.343 65.8979 38.534 65.6394 38.6517C65.3538 38.7844 65.0417 38.8505 64.7267 38.8449H62.3347V33.2513H64.5682C64.8724 33.2439 65.174 33.3081 65.4487 33.4386C65.688 33.5534 65.8911 33.7316 66.0357 33.9538C66.174 34.1715 66.2508 34.4223 66.258 34.6799C66.2653 34.9375 66.2026 35.1923 66.0767 35.4173C65.9578 35.6239 65.7894 35.7978 65.5866 35.9237C65.8556 36.0338 66.0848 36.2226 66.244 36.4652ZM63.3091 35.5871H64.4303C64.6614 35.6018 64.8894 35.5274 65.0671 35.3793C65.1442 35.3035 65.2039 35.2119 65.2419 35.1108C65.2799 35.0097 65.2954 34.9015 65.2872 34.7939C65.2922 34.691 65.2734 34.5884 65.2321 34.494C65.1909 34.3995 65.1284 34.3159 65.0495 34.2494C64.8684 34.1107 64.6436 34.0412 64.4156 34.0533H63.3091V35.5871ZM65.255 37.8321C65.4154 37.6681 65.5052 37.4481 65.5052 37.2189C65.5052 36.9898 65.4154 36.7697 65.255 36.6057C65.0761 36.4472 64.8425 36.3643 64.6034 36.3745H63.3003V38.0517H64.5682C64.8158 38.0622 65.0581 37.9785 65.2462 37.8175L65.255 37.8321Z" fill="white"/>
<path d="M73.6019 37.9902V38.8449H69.9978V33.2513H73.5197V34.109H70.9634V35.5725H73.1998V36.4038H70.9634V37.9756L73.6019 37.9902Z" fill="white"/>
<path d="M77.0974 33.2513H78.0689V37.9493H80.5019V38.8449H77.0974V33.2513Z" fill="white"/>
<path d="M53.7092 25.5795V28.1641H44.7195V14.5416H53.5243V17.1262H47.6926V20.0299H52.7935V22.5383H47.6926V25.5825L53.7092 25.5795Z" fill="white"/>
<path d="M58.4665 27.8334C57.6439 27.4488 56.9552 26.8281 56.4884 26.0508C56.0045 25.2115 55.7618 24.2555 55.7869 23.2877V14.5416H58.7776V23.0301C58.7776 23.9101 59.0124 24.5843 59.482 25.0527C60.0225 25.5043 60.7051 25.7518 61.4102 25.7518C62.1154 25.7518 62.798 25.5043 63.3385 25.0527C63.8081 24.5843 64.0399 23.9111 64.0399 23.0301V14.5416H67.013V23.2964C67.0366 24.2613 66.7939 25.2141 66.3116 26.0508C65.846 26.8238 65.1605 27.4412 64.3422 27.8246C63.4231 28.2477 62.4193 28.4559 61.4073 28.4334C60.3942 28.4568 59.389 28.2517 58.4665 27.8334Z" fill="white"/>
<path d="M80.4727 28.0997V28.1612H77.0976L74.2536 23.2964H72.7275V28.1641H69.7456V14.5416H75.228C76.1038 14.5282 76.9694 14.7292 77.7491 15.127C78.4495 15.4787 79.038 16.0178 79.4485 16.6842C79.8542 17.3655 80.0625 18.1457 80.0501 18.938C80.0633 19.8049 79.7911 20.6521 79.2753 21.3499C78.7407 22.0677 78.0026 22.6091 77.1563 22.9042L80.4727 28.0997ZM74.8964 20.9079C75.4692 20.9415 76.0332 20.755 76.4724 20.3869C76.6669 20.21 76.8201 19.9929 76.9215 19.7507C77.0229 19.5085 77.07 19.2471 77.0594 18.9848C77.066 18.7249 77.017 18.4664 76.9158 18.2267C76.8146 17.987 76.6635 17.7715 76.4724 17.5945C76.0504 17.2135 75.4943 17.0146 74.9257 17.0413H72.7363V20.9108L74.8964 20.9079Z" fill="white"/>
<path d="M85.0099 27.5143C83.9341 26.9218 83.0472 26.0393 82.4507 24.9678C81.8373 23.8673 81.5217 22.6265 81.535 21.3675C81.5132 20.0898 81.829 18.829 82.4507 17.7116C83.0482 16.6468 83.9354 15.7721 85.0099 15.1885C86.1708 14.5885 87.4592 14.2754 88.7666 14.2754C90.0741 14.2754 91.3625 14.5885 92.5233 15.1885C93.5991 15.7668 94.4893 16.6363 95.0914 17.697C95.7125 18.8195 96.0254 20.0857 95.9983 21.3675C96.0158 22.6287 95.7032 23.8727 95.0914 24.9766C94.4948 26.0481 93.6079 26.9306 92.5321 27.5231C91.3725 28.1269 90.0836 28.4422 88.7754 28.4422C87.4673 28.4422 86.1784 28.1269 85.0187 27.5231L85.0099 27.5143ZM90.9825 25.1727C91.6125 24.7907 92.1213 24.2386 92.45 23.5804C92.788 22.8784 92.9636 22.1096 92.9636 21.3309C92.9636 20.5522 92.788 19.7834 92.45 19.0815C92.1207 18.429 91.6116 17.8837 90.9825 17.5097C90.3064 17.1352 89.5458 16.9387 88.7725 16.9387C87.9992 16.9387 87.2386 17.1352 86.5625 17.5097C85.9334 17.8837 85.4244 18.429 85.0951 19.0815C84.7588 19.784 84.5843 20.5525 84.5843 21.3309C84.5843 22.1093 84.7588 22.8779 85.0951 23.5804C85.4237 24.2386 85.9325 24.7907 86.5625 25.1727C87.2368 25.5526 87.9981 25.7522 88.7725 25.7522C89.5469 25.7522 90.3082 25.5526 90.9825 25.1727Z" fill="white"/>
<path d="M8.22951 13.3679L5.29166 12.3756L4.8837 9.43097L3.04057 11.7697L0.00585938 11.1462L1.80203 13.5815L0.302287 16.1339L3.2871 15.3085L5.44721 17.5243L5.44427 14.565L8.22951 13.3679Z" fill="#F1BE44"/>
<path d="M40.6046 21.2183L38.4416 19.3508L39.1225 16.6901L36.7305 18.0483L34.3532 16.4589L35.0371 19.1635L32.8623 20.826L35.7004 21.1597L36.7716 23.8028L37.8047 21.2739L40.6046 21.2183Z" fill="#F1BE44"/>
<path d="M8.23539 35.11L5.46189 33.7255L5.46483 30.7516L3.31646 32.8152L0.396215 31.782L1.83726 34.4397L0 36.7638L3.06993 36.3569L4.90426 38.8449L5.30928 35.915L8.23539 35.11Z" fill="#F1BE44"/>
<path d="M23.5674 15.3992L21.7272 15.2938L21.0257 13.6693L20.3419 15.2997L18.5017 15.4197L19.9163 16.532L19.4614 18.2326L21.0404 17.2901L22.6311 18.2209L22.1616 16.5232L23.5674 15.3992Z" fill="#F1BE44"/>
<path d="M18.2905 6.88736L16.6322 4.2735L18.1731 1.72696L15.2646 2.38848L13.2982 0L13.1573 3.02072L10.3838 4.06568L13.2219 5.29504L13.5065 8.37137L15.3702 6.07071L18.2905 6.88736Z" fill="#F1BE44"/>
<path d="M30.8549 9.08851L31.2775 6.02388L34.1039 5.07259L31.4536 3.70565L31.4977 0.614685L29.4373 2.83339L26.6404 1.84112L28.0139 4.61304L26.2383 7.14201L29.1527 6.58588L30.8549 9.08851Z" fill="#F1BE44"/>
<path d="M1.08301 28.3222C1.46455 27.4207 1.81674 26.566 2.19241 25.7347C2.2335 25.6439 2.43307 25.5825 2.56221 25.5795C3.64226 25.5795 4.72231 25.5795 5.79062 25.5795C5.93737 25.5795 6.08412 25.5649 6.25141 25.5561V23.2145H1.12703C1.51738 22.2954 1.87544 21.4319 2.25991 20.5801C2.29807 20.4952 2.50058 20.4484 2.62678 20.4455C3.88292 20.4455 5.14201 20.4455 6.40109 20.4455C6.45609 20.4559 6.51266 20.4549 6.56723 20.4424C6.6218 20.4299 6.67318 20.4063 6.71814 20.373C6.76309 20.3397 6.80064 20.2975 6.82841 20.249C6.85618 20.2005 6.87357 20.1468 6.87948 20.0913C7.87228 16.5829 10.076 13.5371 13.1015 11.4916C14.9873 10.1755 17.1531 9.31292 19.4292 8.97143C21.5218 8.62117 23.6641 8.70282 25.7238 9.21132C27.7835 9.71982 29.7166 10.6444 31.4037 11.9278C31.8645 12.2673 32.2842 12.6595 32.7127 13.04C32.7978 13.1161 32.8917 13.2918 32.8594 13.3737C32.5014 14.2928 32.1198 15.2031 31.7412 16.1193C27.7996 12.039 23.1595 10.6135 17.7211 12.3785C13.4273 13.7747 10.6421 17.4833 9.85256 20.4221H29.9744C29.587 21.347 29.2377 22.2134 28.8532 23.0564C28.8151 23.1442 28.5832 23.1852 28.4424 23.1852C25.6659 23.1852 22.8895 23.1852 20.1101 23.1852H9.21568V25.5473H27.8583C27.4826 26.4577 27.1451 27.3036 26.7636 28.1495C26.7137 28.2549 26.4349 28.2988 26.2646 28.3017C23.2965 28.3017 20.3283 28.3017 17.3601 28.3017H9.76744C11.1028 32.0366 13.4772 34.7646 17.1253 36.1608C22.7016 38.2976 27.5413 36.9307 31.706 32.7128C31.706 33.9714 31.706 35.2183 31.706 36.4653C31.6712 36.6053 31.5841 36.7268 31.4624 36.8048C29.4072 38.398 26.9735 39.4336 24.398 39.8109C19.2208 40.5543 14.7128 39.1025 10.9561 35.5169C9.00008 33.6508 7.58989 31.2893 6.87654 28.6851C6.87055 28.6261 6.85246 28.5689 6.82339 28.5172C6.79432 28.4654 6.7549 28.4201 6.70757 28.3842C6.66024 28.3482 6.60601 28.3223 6.54824 28.3082C6.49047 28.294 6.4304 28.2918 6.37174 28.3017C4.76047 28.3017 3.14332 28.3017 1.53499 28.3017L1.08301 28.3222Z" fill="white"/>
</svg>
