<svg width="0" height="0" style="display:none;">

    <symbol viewBox="0 0 17 20" id="icon-edit" xmlns="http://www.w3.org/2000/svg">
        <path
            d="M16 18H2.00001C1.73479 18 1.48044 18.1053 1.2929 18.2929C1.10536 18.4804 1.00001 18.7348 1.00001 19C1.00001 19.2652 1.10536 19.5196 1.2929 19.7071C1.48044 19.8946 1.73479 20 2.00001 20H16C16.2652 20 16.5196 19.8946 16.7071 19.7071C16.8947 19.5196 17 19.2652 17 19C17 18.7348 16.8947 18.4804 16.7071 18.2929C16.5196 18.1053 16.2652 18 16 18ZM2.00001 16H2.09001L6.26001 15.62C6.7168 15.5745 7.14404 15.3732 7.47001 15.05L16.47 6.04998C16.8193 5.68095 17.0081 5.18849 16.995 4.68052C16.9819 4.17254 16.7679 3.69049 16.4 3.33998L13.66 0.59998C13.3024 0.264076 12.8338 0.0713388 12.3433 0.058432C11.8529 0.0455252 11.3748 0.213349 11 0.52998L2.00001 9.52998C1.67677 9.85594 1.47551 10.2832 1.43001 10.74L1.00001 14.91C0.986536 15.0564 1.00554 15.2041 1.05567 15.3424C1.10579 15.4806 1.18581 15.6062 1.29001 15.71C1.38345 15.8027 1.49426 15.876 1.6161 15.9258C1.73794 15.9755 1.8684 16.0007 2.00001 16ZM12.27 1.99998L15 4.72998L13 6.67998L10.32 3.99998L12.27 1.99998Z"
            fill="white" />
    </symbol>

    <symbol viewBox="0 0 17 20" id="icon-edit-green" xmlns="http://www.w3.org/2000/svg">
        <path
            d="M16 18H1.99999C1.73478 18 1.48042 18.1053 1.29288 18.2929C1.10535 18.4804 0.999992 18.7348 0.999992 19C0.999992 19.2652 1.10535 19.5196 1.29288 19.7071C1.48042 19.8946 1.73478 20 1.99999 20H16C16.2652 20 16.5196 19.8946 16.7071 19.7071C16.8946 19.5196 17 19.2652 17 19C17 18.7348 16.8946 18.4804 16.7071 18.2929C16.5196 18.1053 16.2652 18 16 18ZM1.99999 16H2.08999L6.25999 15.62C6.71679 15.5745 7.14403 15.3732 7.46999 15.05L16.47 6.04998C16.8193 5.68095 17.0081 5.18849 16.995 4.68052C16.9818 4.17254 16.7679 3.69049 16.4 3.33998L13.66 0.59998C13.3024 0.264076 12.8338 0.0713388 12.3433 0.058432C11.8529 0.0455252 11.3748 0.213349 11 0.52998L1.99999 9.52998C1.67676 9.85594 1.4755 10.2832 1.42999 10.74L0.999992 14.91C0.98652 15.0564 1.00553 15.2041 1.05565 15.3424C1.10578 15.4806 1.18579 15.6062 1.28999 15.71C1.38343 15.8027 1.49425 15.876 1.61609 15.9258C1.73792 15.9755 1.86838 16.0007 1.99999 16ZM12.27 1.99998L15 4.72998L13 6.67998L10.32 3.99998L12.27 1.99998Z"
            fill="#41A44B" />
    </symbol>

    <symbol  viewBox="0 0 22 24" id="icon-del" xmlns="http://www.w3.org/2000/svg">
        <path
            d="M8.5 4H13.5C13.5 3.33696 13.2366 2.70107 12.7678 2.23223C12.2989 1.76339 11.663 1.5 11 1.5C10.337 1.5 9.70107 1.76339 9.23223 2.23223C8.76339 2.70107 8.5 3.33696 8.5 4ZM7 4C7 2.93913 7.42143 1.92172 8.17157 1.17157C8.92172 0.421427 9.93913 0 11 0C12.0609 0 13.0783 0.421427 13.8284 1.17157C14.5786 1.92172 15 2.93913 15 4H21.25C21.4489 4 21.6397 4.07902 21.7803 4.21967C21.921 4.36032 22 4.55109 22 4.75C22 4.94891 21.921 5.13968 21.7803 5.28033C21.6397 5.42098 21.4489 5.5 21.25 5.5H19.94L18.723 20.103C18.6345 21.1653 18.1499 22.1556 17.3655 22.8774C16.5811 23.5992 15.554 23.9999 14.488 24H7.512C6.44599 23.9999 5.41894 23.5992 4.6345 22.8774C3.85007 22.1556 3.36554 21.1653 3.277 20.103L2.06 5.5H0.75C0.551088 5.5 0.360322 5.42098 0.21967 5.28033C0.0790175 5.13968 0 4.94891 0 4.75C0 4.55109 0.0790175 4.36032 0.21967 4.21967C0.360322 4.07902 0.551088 4 0.75 4H7ZM9.5 9.75C9.5 9.55109 9.42098 9.36032 9.28033 9.21967C9.13968 9.07902 8.94891 9 8.75 9C8.55109 9 8.36032 9.07902 8.21967 9.21967C8.07902 9.36032 8 9.55109 8 9.75V18.25C8 18.4489 8.07902 18.6397 8.21967 18.7803C8.36032 18.921 8.55109 19 8.75 19C8.94891 19 9.13968 18.921 9.28033 18.7803C9.42098 18.6397 9.5 18.4489 9.5 18.25V9.75ZM13.25 9C13.0511 9 12.8603 9.07902 12.7197 9.21967C12.579 9.36032 12.5 9.55109 12.5 9.75V18.25C12.5 18.4489 12.579 18.6397 12.7197 18.7803C12.8603 18.921 13.0511 19 13.25 19C13.4489 19 13.6397 18.921 13.7803 18.7803C13.921 18.6397 14 18.4489 14 18.25V9.75C14 9.55109 13.921 9.36032 13.7803 9.21967C13.6397 9.07902 13.4489 9 13.25 9Z"
            fill="#BF4D4D" />
    </symbol>


</svg>